<svg xmlns="http://www.w3.org/2000/svg" viewBox="0 0 23.05 23.05"><defs><style>.cls-1{fill:#f0f0f0;}.cls-2{fill:#d80027;}.cls-3{fill:#0052b4;}</style></defs><title>usa_icon</title><g id="Layer_2" data-name="Layer 2"><g id="Home"><g id="menu_USA" data-name="menu USA"><path class="cls-1" d="M23.05,11.53A11.53,11.53,0,1,1,11.53,0,11.53,11.53,0,0,1,23.05,11.53Zm0,0"/><path class="cls-2" d="M11,11.53h12a11.53,11.53,0,0,0-.4-3H11Zm0,0"/><path class="cls-2" d="M11,5.51H21.36a11.58,11.58,0,0,0-2.66-3H11Zm0,0"/><path class="cls-2" d="M11.53,23.05a11.48,11.48,0,0,0,7.17-2.51H4.35a11.48,11.48,0,0,0,7.17,2.51Zm0,0"/><path class="cls-2" d="M1.69,17.54H21.36a11.45,11.45,0,0,0,1.29-3H.4a11.46,11.46,0,0,0,1.29,3Zm0,0"/><path class="cls-3" d="M5.34,1.8H6.39l-1,.71.37,1.15-1-.71-1,.71.32-1A11.59,11.59,0,0,0,1.92,5.16h.34l-.62.45-.28.49.3.91-.55-.4q-.21.44-.38.89l.33,1H2.26l-1,.71.37,1.15-1-.71-.59.43A11.66,11.66,0,0,0,0,11.53H11.53V0A11.47,11.47,0,0,0,5.34,1.8Zm.45,8.57-1-.71-1,.71L4.2,9.22l-1-.71H4.44l.37-1.15.37,1.15H6.39l-1,.71ZM5.41,5.87,5.79,7l-1-.71L3.83,7,4.2,5.87l-1-.71H4.44L4.81,4l.37,1.15H6.39Zm4.51,4.51-1-.71-1,.71.37-1.15-1-.71H8.57l.37-1.15.37,1.15h1.21l-1,.71ZM9.55,5.87,9.92,7l-1-.71L8,7l.37-1.15-1-.71H8.57L8.94,4l.37,1.15h1.21Zm0-3.36.37,1.15-1-.71L8,3.66l.37-1.15-1-.71H8.57L8.94.65,9.32,1.8h1.21Zm0,0"/></g></g></g></svg>